<svg xmlns="http://www.w3.org/2000/svg" width="24.296" height="21.502" viewBox="0 0 24.296 21.502">
  <path id="icons8-two-tickets" d="M23.15,4.892a2.02,2.02,0,0,0-.392.052L5.722,8.952h7.484l9.945-2.34a.28.28,0,0,1,.215.035.285.285,0,0,1,.127.177L24,8.952h1.752l-.593-2.52A2,2,0,0,0,23.15,4.892ZM5,10.1a2.013,2.013,0,0,0-2,2v2.873a.857.857,0,0,0,.963.85,1.511,1.511,0,0,1,.18-.01,2.285,2.285,0,0,1,0,4.571,1.511,1.511,0,0,1-.18-.01.857.857,0,0,0-.963.85v2.873a2.013,2.013,0,0,0,2,2H25a2.013,2.013,0,0,0,2-2V21.219a.857.857,0,0,0-.963-.85,1.512,1.512,0,0,1-.18.01,2.285,2.285,0,1,1,0-4.571,1.512,1.512,0,0,1,.18.01.857.857,0,0,0,.963-.85V12.095a2.013,2.013,0,0,0-2-2Zm0,1.714H25a.273.273,0,0,1,.286.286V14.21a3.914,3.914,0,0,0,0,7.767v2.116a.273.273,0,0,1-.286.286H5a.273.273,0,0,1-.286-.286V21.977a3.914,3.914,0,0,0,0-7.767V12.095A.273.273,0,0,1,5,11.809Z" transform="translate(-2.85 -4.74)" stroke="#545454" stroke-linecap="square" stroke-width="0.3"/>
</svg>
